<svg xmlns="http://www.w3.org/2000/svg" width="840" height="360" viewBox="0 0 840 360" role="img" aria-label="Star history">
  <defs>
    <style>.reveal{animation:rise .24s cubic-bezier(.2,.7,.3,1)}
    @keyframes rise{from{opacity:0;transform:translateY(4px)}}</style>
    <linearGradient id="paper" x1="0" y1="0" x2="0.75" y2="1">
      <stop offset="0" stop-color="#e8ddc9"/><stop offset="1" stop-color="#d9cbb2"/>
    </linearGradient>
    <radialGradient id="key" cx="0.22" cy="-0.05" r="0.85">
      <stop offset="0" stop-color="#fff3dd" stop-opacity="0.5"/>
      <stop offset="1" stop-color="#fff3dd" stop-opacity="0"/>
    </radialGradient>
    <radialGradient id="bounce" cx="1.02" cy="0.42" r="0.72">
      <stop offset="0" stop-color="#6f9c72" stop-opacity="0.22"/>
      <stop offset="1" stop-color="#6f9c72" stop-opacity="0"/>
    </radialGradient>
    <linearGradient id="oak" x1="0" y1="0" x2="1" y2="0.6">
      <stop offset="0" stop-color="#4a3520"/><stop offset="0.55" stop-color="#241a12"/>
      <stop offset="1" stop-color="#241a12"/>
    </linearGradient>
    <linearGradient id="contact" x1="0" y1="0" x2="0" y2="1">
      <stop offset="0" stop-color="#000000" stop-opacity="0.6"/><stop offset="1" stop-color="#000000" stop-opacity="0"/>
    </linearGradient>
    <linearGradient id="brassrule" x1="0" y1="0" x2="1" y2="0">
      <stop offset="0" stop-color="#7f5a2f"/><stop offset="1" stop-color="#7f5a2f" stop-opacity="0"/>
    </linearGradient>
    <linearGradient id="hairline" x1="0" y1="0" x2="1" y2="0">
      <stop offset="0" stop-color="#7f5a2f" stop-opacity="0.55"/>
      <stop offset="1" stop-color="#7f5a2f" stop-opacity="0.08"/>
    </linearGradient>
    <radialGradient id="halo">
      <stop offset="0" stop-color="#4d7d54" stop-opacity="0.34"/>
      <stop offset="1" stop-color="#4d7d54" stop-opacity="0"/>
    </radialGradient>
    <pattern id="ruling" width="14" height="14" patternUnits="userSpaceOnUse">
      <path d="M14 0 V14 M0 14 H14" fill="none" stroke="#7f5a2f" stroke-width="0.5" stroke-opacity="0.13"/>
    </pattern>
    <filter id="grain"><feTurbulence type="fractalNoise" baseFrequency="0.9" numOctaves="2" stitchTiles="stitch"/>
      <feColorMatrix values="0 0 0 0 1  0 0 0 0 1  0 0 0 0 1  0 0 0 0.06 0"/></filter>
    <filter id="woodgrain"><feTurbulence type="fractalNoise" baseFrequency="0.006 0.5" numOctaves="3" stitchTiles="stitch"/>
      <feColorMatrix values="0 0 0 0 0.62  0 0 0 0 0.44  0 0 0 0 0.22  0 0 0 0.11 0"/></filter>
  </defs>
  <rect width="840" height="360" fill="url(#paper)"/>
  <rect width="840" height="360" fill="url(#key)"/>
  <rect width="840" height="360" fill="url(#bounce)"/>
  <rect width="840" height="360" filter="url(#grain)" opacity="0.1"/>
  <path d="M0 0.5 H840 M0.5 0 V360" stroke="rgba(255,255,255,0.55)" stroke-width="1" fill="none"/>
  <g class="reveal">
    <linearGradient id="area" x1="0" y1="0" x2="0" y2="1">
      <stop offset="0" stop-color="#cabb9f" stop-opacity="0.55"/><stop offset="1" stop-color="#cabb9f" stop-opacity="0"/>
    </linearGradient>
    
    <rect x="48" y="36" width="56" height="1.5" fill="url(#brassrule)"/>
    <text x="48" y="56" font-family="'Fragment Mono',ui-monospace,SFMono-Regular,'SF Mono',Menlo,Consolas,monospace" font-size="11" font-weight="400" fill="#574733" letter-spacing="1.5">STAR HISTORY</text>
    <circle cx="155.7" cy="52" r="11" fill="url(#halo)" opacity="1"/>
    <circle cx="155.7" cy="52" r="3.2" fill="#4d7d54"/>
    <text x="792" y="56" font-family="'Fragment Mono',ui-monospace,SFMono-Regular,'SF Mono',Menlo,Consolas,monospace" font-size="12" font-weight="400" fill="#62523c" text-anchor="end">Jan 2026 to today</text>
    <text x="48" y="118" font-family="'Source Serif 4','Iowan Old Style',Georgia,'Times New Roman',serif" font-size="32" font-weight="600" fill="#3a2e1d">322</text>
        <text x="48" y="140" font-family="'Fragment Mono',ui-monospace,SFMono-Regular,'SF Mono',Menlo,Consolas,monospace" font-size="10" font-weight="400" fill="#62523c" letter-spacing="1.5">TOTAL STARS</text><text x="234" y="118" font-family="'Source Serif 4','Iowan Old Style',Georgia,'Times New Roman',serif" font-size="32" font-weight="600" fill="#3a2e1d">+8</text>
        <text x="234" y="140" font-family="'Fragment Mono',ui-monospace,SFMono-Regular,'SF Mono',Menlo,Consolas,monospace" font-size="10" font-weight="400" fill="#62523c" letter-spacing="1.5">LAST 30 DAYS</text><text x="420" y="118" font-family="'Source Serif 4','Iowan Old Style',Georgia,'Times New Roman',serif" font-size="32" font-weight="600" fill="#3a2e1d">+2</text>
        <text x="420" y="140" font-family="'Fragment Mono',ui-monospace,SFMono-Regular,'SF Mono',Menlo,Consolas,monospace" font-size="10" font-weight="400" fill="#62523c" letter-spacing="1.5">LAST 7 DAYS</text><text x="606" y="118" font-family="'Source Serif 4','Iowan Old Style',Georgia,'Times New Roman',serif" font-size="32" font-weight="600" fill="#3a2e1d">81</text>
        <text x="606" y="140" font-family="'Fragment Mono',ui-monospace,SFMono-Regular,'SF Mono',Menlo,Consolas,monospace" font-size="10" font-weight="400" fill="#62523c" letter-spacing="1.5">PEAK DAY · 19 JUN</text>
    <line x1="48" y1="164" x2="792" y2="164" stroke="url(#hairline)"/>
    
    <text x="48" y="190" font-family="'Fragment Mono',ui-monospace,SFMono-Regular,'SF Mono',Menlo,Consolas,monospace" font-size="11" font-weight="400" fill="#574733" letter-spacing="1.5">CUMULATIVE STARS</text>
    <rect x="96" y="206" width="696" height="72" fill="url(#ruling)"/>
    <text x="82" y="281.5" font-family="'Fragment Mono',ui-monospace,SFMono-Regular,'SF Mono',Menlo,Consolas,monospace" font-size="10" font-weight="400" fill="#62523c" text-anchor="end" letter-spacing="1.5">0</text><text x="82" y="245.5" font-family="'Fragment Mono',ui-monospace,SFMono-Regular,'SF Mono',Menlo,Consolas,monospace" font-size="10" font-weight="400" fill="#62523c" text-anchor="end" letter-spacing="1.5">200</text><text x="82" y="209.5" font-family="'Fragment Mono',ui-monospace,SFMono-Regular,'SF Mono',Menlo,Consolas,monospace" font-size="10" font-weight="400" fill="#62523c" text-anchor="end" letter-spacing="1.5">400</text>
    <line x1="160.5" y1="278" x2="160.5" y2="283" stroke="#7f5a2f" stroke-opacity="0.5"/>
        <text x="160.51766845808027" y="298" font-family="'Fragment Mono',ui-monospace,SFMono-Regular,'SF Mono',Menlo,Consolas,monospace" font-size="10" font-weight="400" fill="#62523c" text-anchor="middle" letter-spacing="1.5">FEB</text><line x1="312.8" y1="278" x2="312.8" y2="283" stroke="#7f5a2f" stroke-opacity="0.5"/>
        <text x="312.7793660191497" y="298" font-family="'Fragment Mono',ui-monospace,SFMono-Regular,'SF Mono',Menlo,Consolas,monospace" font-size="10" font-weight="400" fill="#62523c" text-anchor="middle" letter-spacing="1.5">APR</text><line x1="470.2" y1="278" x2="470.2" y2="283" stroke="#7f5a2f" stroke-opacity="0.5"/>
        <text x="470.20247705686546" y="298" font-family="'Fragment Mono',ui-monospace,SFMono-Regular,'SF Mono',Menlo,Consolas,monospace" font-size="10" font-weight="400" fill="#62523c" text-anchor="middle" letter-spacing="1.5">JUN</text><line x1="627.6" y1="278" x2="627.6" y2="283" stroke="#7f5a2f" stroke-opacity="0.5"/>
        <text x="627.6255880945813" y="298" font-family="'Fragment Mono',ui-monospace,SFMono-Regular,'SF Mono',Menlo,Consolas,monospace" font-size="10" font-weight="400" fill="#62523c" text-anchor="middle" letter-spacing="1.5">AUG</text><line x1="785.0" y1="278" x2="785.0" y2="283" stroke="#7f5a2f" stroke-opacity="0.5"/>
        <text x="785.0486991322971" y="298" font-family="'Fragment Mono',ui-monospace,SFMono-Regular,'SF Mono',Menlo,Consolas,monospace" font-size="10" font-weight="400" fill="#62523c" text-anchor="middle" letter-spacing="1.5">OCT</text>
    <line x1="96" y1="278" x2="792" y2="278" stroke="url(#hairline)"/>
    <path d="M96.0,278.0 L96.0,278.0 L96.0,277.8 L119.2,275.1 L129.5,274.6 L134.7,274.4 L183.7,274.2 L426.3,274.0 L439.2,273.7 L449.6,273.5 L498.6,273.3 L516.7,258.7 L519.2,254.6 L521.8,253.5 L524.4,252.4 L527.0,251.4 L529.6,249.7 L532.1,247.8 L534.7,246.5 L537.3,246.3 L542.5,246.1 L545.0,246.0 L547.6,245.8 L550.2,245.2 L557.9,245.1 L560.5,244.7 L565.7,244.5 L568.3,244.3 L578.6,244.2 L583.8,244.0 L588.9,243.6 L594.1,243.4 L596.7,243.3 L599.2,243.1 L601.8,242.9 L604.4,242.7 L607.0,242.5 L609.6,242.4 L622.5,242.2 L625.0,235.0 L627.6,232.5 L630.2,230.8 L632.8,230.3 L637.9,229.9 L643.1,229.6 L645.7,229.4 L648.3,229.2 L656.0,229.0 L663.8,228.9 L671.5,227.2 L674.1,225.6 L679.2,222.0 L681.8,221.8 L702.5,221.7 L705.0,221.5 L720.5,221.3 L723.1,221.1 L728.3,220.9 L741.2,220.8 L746.3,220.6 L756.7,220.4 L772.1,220.2 L782.5,220.0 L792.0,220.0 L792.0,278 Z" fill="url(#area)"/>
    <polyline points="96.0,278.0 96.0,277.8 119.2,275.1 129.5,274.6 134.7,274.4 183.7,274.2 426.3,274.0 439.2,273.7 449.6,273.5 498.6,273.3 516.7,258.7 519.2,254.6 521.8,253.5 524.4,252.4 527.0,251.4 529.6,249.7 532.1,247.8 534.7,246.5 537.3,246.3 542.5,246.1 545.0,246.0 547.6,245.8 550.2,245.2 557.9,245.1 560.5,244.7 565.7,244.5 568.3,244.3 578.6,244.2 583.8,244.0 588.9,243.6 594.1,243.4 596.7,243.3 599.2,243.1 601.8,242.9 604.4,242.7 607.0,242.5 609.6,242.4 622.5,242.2 625.0,235.0 627.6,232.5 630.2,230.8 632.8,230.3 637.9,229.9 643.1,229.6 645.7,229.4 648.3,229.2 656.0,229.0 663.8,228.9 671.5,227.2 674.1,225.6 679.2,222.0 681.8,221.8 702.5,221.7 705.0,221.5 720.5,221.3 723.1,221.1 728.3,220.9 741.2,220.8 746.3,220.6 756.7,220.4 772.1,220.2 782.5,220.0 792.0,220.0" fill="none" stroke="#956b23" stroke-width="1.6" stroke-linejoin="round" stroke-linecap="round"/>
    
    <circle cx="792.0" cy="220.0" r="11" fill="url(#halo)"/>
    <path d="M792.0 220.0 L748.0 186.0 h-130.0" fill="none" stroke="#7f5a2f" stroke-width="1"/>
    <circle cx="792.0" cy="220.0" r="3.2" fill="#4d7d54"/>
    <text x="743" y="179.04" font-family="'Fragment Mono',ui-monospace,SFMono-Regular,'SF Mono',Menlo,Consolas,monospace" font-size="11" font-weight="400" fill="#574733" text-anchor="end" letter-spacing="1.5">322 STARS TODAY</text></g>
  
  <g>
    <rect x="0" y="318" width="840" height="42" fill="url(#oak)"/>
    <rect x="0" y="318" width="840" height="42" filter="url(#woodgrain)" opacity="0.5"/>
    <rect x="0" y="318" width="840" height="14" fill="url(#contact)"/>
    <rect x="0" y="318" width="840" height="1" fill="#ffca8a" opacity="0.34"/>
  </g>
  <text x="48" y="344" font-family="'Fragment Mono',ui-monospace,SFMono-Regular,'SF Mono',Menlo,Consolas,monospace" font-size="10" font-weight="400" fill="#956b23" letter-spacing="1.5">GITHUB STARGAZER API · DRAWN IN THIS REPO</text>
</svg>